<svg width="1150" height="500">
<!-- border first -->
	<rect x="0" y="0" width="1150" height="500"
		style="fill:peru;	stroke:black;	stroke-width:1;" />
<!-- draw all white first -->
	<!--polygon points="0,0,20,0,20,60,30,60,30,120,0,120"
		style="fill:white;	stroke:black;	stroke-width:1;"
		onclick="document.getElementById('C4').play()" />
		don't complicate, go simple -->
	<!--polygon points="0,0,30,0,30,120,0,120"
		style="fill:white;	stroke:black;	stroke-width:1;"
		onclick="document.getElementById('C4').play()" />
		further simple -->
	<rect x="50" y="250" rx="15" ry="15" width="50" height="200"
		style="fill:white;	stroke:black;	stroke-width:1;"
		onclick="document.getElementById('C4').play()" />
	<rect x="100" y="250" rx="15" ry="15" width="50" height="200"
		style="fill:white;	stroke:black;	stroke-width:1;"
		onclick="document.getElementById('D4').play()" />
	<rect x="150" y="250" rx="15" ry="15" width="50" height="200"
		style="fill:white;	stroke:black;	stroke-width:1;"
		onclick="document.getElementById('E4').play()" />
	<rect x="200" y="250" rx="15" ry="15" width="50" height="200"
		style="fill:white;	stroke:black;	stroke-width:1;"
		onclick="document.getElementById('F4').play()" />
	<rect x="250" y="250" rx="15" ry="15" width="50" height="200"
		style="fill:white;	stroke:black;	stroke-width:1;"
		onclick="document.getElementById('G4').play()" />
	<rect x="300" y="250" rx="15" ry="15" width="50" height="200"
		style="fill:white;	stroke:black;	stroke-width:1;"
		onclick="document.getElementById('A4').play()" />
	<rect x="350" y="250" rx="15" ry="15" width="50" height="200"
		style="fill:white;	stroke:black;	stroke-width:1;"
		onclick="document.getElementById('B4').play()" />
		
	<rect x="400" y="250" rx="15" ry="15" width="50" height="200"
		style="fill:white;	stroke:black;	stroke-width:1;"		
		onclick="document.getElementById('C5').play()" />
	<rect x="450" y="250" rx="15" ry="15" width="50" height="200"
		style="fill:white;	stroke:black;	stroke-width:1;"
		onclick="document.getElementById('D5').play()" />
	<rect x="500" y="250" rx="15" ry="15" width="50" height="200"
		style="fill:white;	stroke:black;	stroke-width:1;"
		onclick="document.getElementById('E5').play()" />
	<rect x="550" y="250" rx="15" ry="15" width="50" height="200"
		style="fill:white;	stroke:black;	stroke-width:1;"
		onclick="document.getElementById('F5').play()" />
	<rect x="600" y="250" rx="15" ry="15" width="50" height="200"
		style="fill:white;	stroke:black;	stroke-width:1;"
		onclick="document.getElementById('G5').play()" />
	<rect x="650" y="250" rx="15" ry="15" width="50" height="200"
		style="fill:white;	stroke:black;	stroke-width:1;"
		onclick="document.getElementById('A5').play()" />
	<rect x="700" y="250" rx="15" ry="15" width="50" height="200"
		style="fill:white;	stroke:black;	stroke-width:1;"
		onclick="document.getElementById('B5').play()" />
		
	<rect x="750" y="250" rx="15" ry="15" width="50" height="200"
		style="fill:white;	stroke:black;	stroke-width:1;"		
		onclick="document.getElementById('C6').play()" />
	<rect x="800" y="250" rx="15" ry="15" width="50" height="200"
		style="fill:white;	stroke:black;	stroke-width:1;"
		onclick="document.getElementById('D6').play()" />
	<rect x="850" y="250" rx="15" ry="15" width="50" height="200"
		style="fill:white;	stroke:black;	stroke-width:1;"
		onclick="document.getElementById('E6').play()" />
	<rect x="900" y="250" rx="15" ry="15" width="50" height="200"
		style="fill:white;	stroke:black;	stroke-width:1;"
		onclick="document.getElementById('F6').play()" />
	<rect x="950" y="250" rx="15" ry="15" width="50" height="200"
		style="fill:white;	stroke:black;	stroke-width:1;"
		onclick="document.getElementById('G6').play()" />
	<rect x="1000" y="250" rx="15" ry="15" width="50" height="200"
		style="fill:white;	stroke:black;	stroke-width:1;"
		onclick="document.getElementById('A6').play()" />
	<rect x="1050" y="250" rx="15" ry="15" width="50" height="200"
		style="fill:white;	stroke:black;	stroke-width:1;"
		onclick="document.getElementById('B6').play()" />
	<!--polygon points="630,0,660,0,660,120,630,120"
		style="fill:white;	stroke:black;	stroke-width:1;"
		onclick="document.getElementById('C7').play()" /-->
		
		
<!-- now draw black over white ones -->
	<rect x="82" y="250" rx="15" ry="20" width="36" height="110"
		style="fill:black;	stroke:black;	stroke-width:1;"
		onclick="document.getElementById('C4_').play()" />
	<rect x="132" y="250" rx="15" ry="20" width="36" height="110"
		style="fill:black;	stroke:black;	stroke-width:1;"
		onclick="document.getElementById('D4_').play()" />
	<rect x="232" y="250" rx="15" ry="20" width="36" height="110"
		style="fill:black;	stroke:black;	stroke-width:1;"
		onclick="document.getElementById('F4_').play()" />
	<rect x="282" y="250" rx="15" ry="20" width="36" height="110"
		style="fill:black;	stroke:black;	stroke-width:1;"
		onclick="document.getElementById('G4_').play()" />
	<rect x="332" y="250" rx="15" ry="20" width="36" height="110"
		style="fill:black;	stroke:black;	stroke-width:1;"
		onclick="document.getElementById('A4_').play()" />
		
	<rect x="432" y="250" rx="15" ry="20" width="36" height="110"
		style="fill:black;	stroke:black;	stroke-width:1;"
		onclick="document.getElementById('C5_').play()" />
	<rect x="482" y="250" rx="15" ry="20" width="36" height="110"
		style="fill:black;	stroke:black;	stroke-width:1;"
		onclick="document.getElementById('D5_').play()" />
	<rect x="582" y="250" rx="15" ry="20" width="36" height="110"
		style="fill:black;	stroke:black;	stroke-width:1;"
		onclick="document.getElementById('F5_').play()" />
	<rect x="632" y="250" rx="15" ry="20" width="36" height="110"
		style="fill:black;	stroke:black;	stroke-width:1;"
		onclick="document.getElementById('G5_').play()" />
	<rect x="682" y="250" rx="15" ry="20" width="36" height="110"
		style="fill:black;	stroke:black;	stroke-width:1;"
		onclick="document.getElementById('A5_').play()" />
		
	<rect x="782" y="250" rx="15" ry="20" width="36" height="110"
		style="fill:black;	stroke:black;	stroke-width:1;"
		onclick="document.getElementById('C6_').play()" />
	<rect x="832" y="250" rx="15" ry="20" width="36" height="110"
		style="fill:black;	stroke:black;	stroke-width:1;"
		onclick="document.getElementById('D6_').play()" />
	<rect x="932" y="250" rx="15" ry="20" width="36" height="110"
		style="fill:black;	stroke:black;	stroke-width:1;"
		onclick="document.getElementById('F6_').play()" />
	<rect x="982" y="250" rx="15" ry="20" width="36" height="110"
		style="fill:black;	stroke:black;	stroke-width:1;"
		onclick="document.getElementById('G6_').play()" />
	<rect x="1032" y="250" rx="15" ry="20" width="36" height="110"
		style="fill:black;	stroke:black;	stroke-width:1;"
		onclick="document.getElementById('A6_').play()" />

<!-- display notations for swar , default is blank -->
	<text x="63" y="440" fill="black" style="font-size: 15px" id="lw1">  </text> <!-- lower octave white 1 -->
	<text x="113" y="440" fill="black" style="font-size: 15px" id="lw2">  </text>
	<text x="163" y="440" fill="black" style="font-size: 15px" id="lw3">  </text>
	<text x="213" y="440" fill="black" style="font-size: 15px" id="lw4">  </text>
	<text x="263" y="440" fill="black" style="font-size: 15px" id="lw5">  </text>
	<text x="313" y="440" fill="black" style="font-size: 15px" id="lw6">  </text>
	<text x="363" y="440" fill="black" style="font-size: 15px" id="lw7">  </text>
	<text x="413" y="440" fill="black" style="font-size: 15px" id="mw1">  </text>
	<text x="463" y="440" fill="black" style="font-size: 15px" id="mw2">  </text>
	<text x="513" y="440" fill="black" style="font-size: 15px" id="mw3">  </text>
	<text x="563" y="440" fill="black" style="font-size: 15px" id="mw4">  </text>
	<text x="613" y="440" fill="black" style="font-size: 15px" id="mw5">  </text>
	<text x="663" y="440" fill="black" style="font-size: 15px" id="mw6">  </text>
	<text x="713" y="440" fill="black" style="font-size: 15px" id="mw7">  </text>
	<text x="763" y="440" fill="black" style="font-size: 15px" id="hw1">  </text>
	<text x="813" y="440" fill="black" style="font-size: 15px" id="hw2">  </text>
	<text x="863" y="440" fill="black" style="font-size: 15px" id="hw3">  </text>
	<text x="913" y="440" fill="black" style="font-size: 15px" id="hw4">  </text>
	<text x="963" y="440" fill="black" style="font-size: 15px" id="hw5">  </text>
	<text x="1013" y="440" fill="black" style="font-size: 15px" id="hw6">  </text>
	<text x="1063" y="440" fill="black" style="font-size: 15px" id="hw7">  </text>
	
	<text x="83" y="340" fill="white" style="font-size: 15px" id="lb1">  </text>
	<text x="133" y="340" fill="white" style="font-size: 15px" id="lb2">  </text>
	<text x="233" y="340" fill="white" style="font-size: 15px" id="lb3">  </text>
	<text x="283" y="340" fill="white" style="font-size: 15px" id="lb4">  </text>
	<text x="333" y="340" fill="white" style="font-size: 15px" id="lb5">  </text>
	<text x="433" y="340" fill="white" style="font-size: 15px" id="mb1">  </text>
	<text x="483" y="340" fill="white" style="font-size: 15px" id="mb2">  </text>
	<text x="583" y="340" fill="white" style="font-size: 15px" id="mb3">  </text>
	<text x="633" y="340" fill="white" style="font-size: 15px" id="mb4">  </text>
	<text x="683" y="340" fill="white" style="font-size: 15px" id="mb5">  </text>
	<text x="783" y="340" fill="white" style="font-size: 15px" id="hb1">  </text>
	<text x="833" y="340" fill="white" style="font-size: 15px" id="hb2">  </text>
	<text x="933" y="340" fill="white" style="font-size: 15px" id="hb3">  </text>
	<text x="983" y="340" fill="white" style="font-size: 15px" id="hb4">  </text>
	<text x="1033" y="340" fill="white" style="font-size: 15px" id="hb5">  </text>
	
<!-- draw something extra, varachi fali -->
	<rect x="50" y="50" rx="20" ry="20" width="1050" height="180"
		style="fill:peru;	stroke:black;	stroke-width:1;" />
	<circle cx="100" cy="80" r="20" fill="black" />
	<circle cx="150" cy="140" r="20" fill="black" />
	<circle cx="100" cy="200" r="20" fill="black" />
	<circle cx="200" cy="80" r="20" fill="black" />
	<circle cx="250" cy="140" r="20" fill="black" />
	<circle cx="200" cy="200" r="20" fill="black" />
	<circle cx="300" cy="80" r="20" fill="black" />
	<circle cx="350" cy="140" r="20" fill="black" />
	<circle cx="300" cy="200" r="20" fill="black" />
	<circle cx="400" cy="80" r="20" fill="black" />
	<circle cx="450" cy="140" r="20" fill="black" />
	<circle cx="400" cy="200" r="20" fill="black" />
	<circle cx="500" cy="80" r="20" fill="black" />
	<circle cx="550" cy="140" r="20" fill="black" />
	<circle cx="500" cy="200" r="20" fill="black" />
	<circle cx="600" cy="80" r="20" fill="black" />
	<circle cx="650" cy="140" r="20" fill="black" />
	<circle cx="600" cy="200" r="20" fill="black" />
	<circle cx="700" cy="80" r="20" fill="black" />
	<circle cx="750" cy="140" r="20" fill="black" />
	<circle cx="700" cy="200" r="20" fill="black" />
	<circle cx="800" cy="80" r="20" fill="black" />
	<circle cx="850" cy="140" r="20" fill="black" />
	<circle cx="800" cy="200" r="20" fill="black" />
	<circle cx="900" cy="80" r="20" fill="black" />
	<circle cx="950" cy="140" r="20" fill="black" />
	<circle cx="900" cy="200" r="20" fill="black" />
	<circle cx="1000" cy="80" r="20" fill="black" />
	<circle cx="1050" cy="140" r="20" fill="black" />
	<circle cx="1000" cy="200" r="20" fill="black" />
	
	<line x1="150" y1="140" x2="100" y2="200" stroke="black" stroke-width="10" />
	<line x1="200" y1="80" x2="250" y2="140" stroke="black" stroke-width="10" />
	<line x1="350" y1="140" x2="300" y2="200" stroke="black" stroke-width="10" />
	<line x1="400" y1="80" x2="450" y2="140" stroke="black" stroke-width="10" />
	<line x1="550" y1="140" x2="500" y2="200" stroke="black" stroke-width="10" />
	<line x1="600" y1="80" x2="650" y2="140" stroke="black" stroke-width="10" />
	<line x1="750" y1="140" x2="700" y2="200" stroke="black" stroke-width="10" />
	<line x1="800" y1="80" x2="850" y2="140" stroke="black" stroke-width="10" />
	<line x1="950" y1="140" x2="900" y2="200" stroke="black" stroke-width="10" />
	<line x1="1000" y1="80" x2="1050" y2="140" stroke="black" stroke-width="10" />
		
</svg>